<svg width="48" height="48" viewBox="0 0 48 48" fill="none" xmlns="http://www.w3.org/2000/svg">
<path fill-rule="evenodd" clip-rule="evenodd" d="M24.0015 2C11.8515 2 2.00146 11.85 2.00146 24C2.00146 36.15 11.8515 46 24.0015 46C36.1515 46 46.0015 36.15 46.0015 24C46.0015 11.85 36.1515 2 24.0015 2ZM17.4155 19.586C17.0383 19.2217 16.5331 19.0201 16.0087 19.0247C15.4843 19.0292 14.9826 19.2395 14.6118 19.6104C14.241 19.9812 14.0307 20.4828 14.0261 21.0072C14.0216 21.5316 14.2231 22.0368 14.5875 22.414L22.5875 30.414C22.9625 30.7889 23.4711 30.9996 24.0015 30.9996C24.5318 30.9996 25.0404 30.7889 25.4155 30.414L33.4155 22.414C33.7798 22.0368 33.9814 21.5316 33.9768 21.0072C33.9723 20.4828 33.7619 19.9812 33.3911 19.6104C33.0203 19.2395 32.5187 19.0292 31.9943 19.0247C31.4699 19.0201 30.9647 19.2217 30.5875 19.586L24.0015 26.172L17.4155 19.586Z" fill="#FFFBFB" fill-opacity="0.65"/>
</svg>
