<svg width="16" height="16" viewBox="0 0 16 16" fill="none" xmlns="http://www.w3.org/2000/svg">
<g clip-path="url(#clip0_389_503)">
<path fill-rule="evenodd" clip-rule="evenodd" d="M4.97821 0.710504C5.76021 0.674504 6.00955 0.666504 8.00155 0.666504C9.99355 0.666504 10.2429 0.675171 11.0242 0.710504C11.8055 0.745837 12.3389 0.870504 12.8055 1.05117C13.2942 1.23584 13.7375 1.5245 14.1042 1.89784C14.4775 2.26384 14.7655 2.7065 14.9495 3.19584C15.1309 3.6625 15.2549 4.19584 15.2909 4.97584C15.3269 5.75917 15.3349 6.0085 15.3349 7.99984C15.3349 9.99184 15.3262 10.2412 15.2909 11.0232C15.2555 11.8032 15.1309 12.3365 14.9495 12.8032C14.7655 13.2926 14.4771 13.736 14.1042 14.1025C13.7375 14.4758 13.2942 14.7638 12.8055 14.9478C12.3389 15.1292 11.8055 15.2532 11.0255 15.2892C10.2429 15.3252 9.99355 15.3332 8.00155 15.3332C6.00955 15.3332 5.76021 15.3245 4.97821 15.2892C4.19821 15.2538 3.66488 15.1292 3.19821 14.9478C2.70883 14.7638 2.26543 14.4753 1.89888 14.1025C1.5258 13.7363 1.23709 13.2931 1.05288 12.8038C0.872213 12.3372 0.748213 11.8038 0.712213 11.0238C0.676213 10.2405 0.668213 9.99117 0.668213 7.99984C0.668213 6.00784 0.67688 5.7585 0.712213 4.97717C0.747546 4.19584 0.872213 3.6625 1.05288 3.19584C1.23736 2.70656 1.52629 2.26338 1.89955 1.89717C2.26557 1.52417 2.70853 1.23547 3.19755 1.05117C3.66421 0.870504 4.19755 0.746504 4.97755 0.710504H4.97821ZM10.9649 2.0305C10.1915 1.99517 9.95955 1.98784 8.00155 1.98784C6.04355 1.98784 5.81155 1.99517 5.03821 2.0305C4.32288 2.06317 3.93488 2.1825 3.67621 2.28317C3.33421 2.4165 3.08955 2.5745 2.83288 2.83117C2.58958 3.06787 2.40233 3.35603 2.28488 3.6745C2.18421 3.93317 2.06488 4.32117 2.03221 5.0365C1.99688 5.80984 1.98955 6.04184 1.98955 7.99984C1.98955 9.95784 1.99688 10.1898 2.03221 10.9632C2.06488 11.6785 2.18421 12.0665 2.28488 12.3252C2.40221 12.6432 2.58955 12.9318 2.83288 13.1685C3.06955 13.4118 3.35821 13.5992 3.67621 13.7165C3.93488 13.8172 4.32288 13.9365 5.03821 13.9692C5.81155 14.0045 6.04288 14.0118 8.00155 14.0118C9.96021 14.0118 10.1915 14.0045 10.9649 13.9692C11.6802 13.9365 12.0682 13.8172 12.3269 13.7165C12.6689 13.5832 12.9135 13.4252 13.1702 13.1685C13.4135 12.9318 13.6009 12.6432 13.7182 12.3252C13.8189 12.0665 13.9382 11.6785 13.9709 10.9632C14.0062 10.1898 14.0135 9.95784 14.0135 7.99984C14.0135 6.04184 14.0062 5.80984 13.9709 5.0365C13.9382 4.32117 13.8189 3.93317 13.7182 3.6745C13.5849 3.3325 13.4269 3.08784 13.1702 2.83117C12.9335 2.58788 12.6453 2.40064 12.3269 2.28317C12.0682 2.1825 11.6802 2.06317 10.9649 2.0305ZM7.06488 10.2605C7.58799 10.4783 8.17047 10.5076 8.71283 10.3437C9.2552 10.1797 9.72381 9.83245 10.0386 9.36133C10.3534 8.89022 10.4949 8.32442 10.4389 7.76057C10.3829 7.19673 10.1329 6.66982 9.73155 6.26984C9.4757 6.01415 9.16636 5.81838 8.82577 5.6966C8.48518 5.57483 8.12183 5.53008 7.76188 5.56558C7.40192 5.60108 7.05431 5.71596 6.74408 5.90192C6.43385 6.08789 6.16871 6.34033 5.96775 6.64107C5.76679 6.94181 5.63501 7.28336 5.58189 7.64114C5.52877 7.99893 5.55565 8.36403 5.66057 8.71018C5.7655 9.05633 5.94587 9.37491 6.18869 9.64299C6.43152 9.91106 6.73076 10.122 7.06488 10.2605ZM5.33621 5.3345C5.68623 4.98449 6.10176 4.70684 6.55908 4.51741C7.0164 4.32798 7.50655 4.23049 8.00155 4.23049C8.49654 4.23049 8.9867 4.32798 9.44401 4.51741C9.90133 4.70684 10.3169 4.98449 10.6669 5.3345C11.0169 5.68452 11.2945 6.10005 11.484 6.55737C11.6734 7.01469 11.7709 7.50484 11.7709 7.99984C11.7709 8.49484 11.6734 8.98499 11.484 9.44231C11.2945 9.89962 11.0169 10.3152 10.6669 10.6652C9.95999 11.3721 9.00124 11.7692 8.00155 11.7692C7.00185 11.7692 6.0431 11.3721 5.33621 10.6652C4.62932 9.95828 4.2322 8.99953 4.2322 7.99984C4.2322 7.00014 4.62932 6.04139 5.33621 5.3345ZM12.6069 4.79184C12.6936 4.71002 12.7631 4.61162 12.8111 4.50249C12.8591 4.39335 12.8848 4.27568 12.8865 4.15646C12.8882 4.03723 12.866 3.91887 12.8212 3.80838C12.7764 3.69789 12.7098 3.59751 12.6255 3.5132C12.5412 3.42888 12.4408 3.36234 12.3303 3.31752C12.2198 3.27269 12.1015 3.25049 11.9823 3.25223C11.863 3.25396 11.7454 3.27961 11.6362 3.32763C11.5271 3.37566 11.4287 3.4451 11.3469 3.53184C11.1878 3.70052 11.1006 3.92458 11.104 4.15646C11.1074 4.38833 11.201 4.60976 11.365 4.77373C11.529 4.93771 11.7504 5.03132 11.9823 5.0347C12.2141 5.03808 12.4382 4.95096 12.6069 4.79184Z" fill="#FFFBFB" fill-opacity="0.65"/>
</g>
<defs>
<clipPath id="clip0_389_503">
<rect width="16" height="16" fill="white" transform="translate(0.00146484)"/>
</clipPath>
</defs>
</svg>
