<svg width="16" height="16" viewBox="0 0 16 16" fill="none" xmlns="http://www.w3.org/2000/svg">
<path d="M15.0015 7.95615C15.0015 7.92178 15.0015 7.88271 14.9999 7.8374C14.9983 7.71084 14.9952 7.56865 14.9921 7.41709C14.9796 6.98115 14.9577 6.54678 14.9233 6.1374C14.8765 5.57334 14.8077 5.10303 14.714 4.7499C14.615 4.38139 14.4211 4.04529 14.1516 3.77521C13.882 3.50513 13.5463 3.31052 13.178 3.21084C12.7358 3.09209 11.8702 3.01865 10.6515 2.97334C10.0718 2.95146 9.45146 2.9374 8.83115 2.92959C8.61396 2.92646 8.4124 2.9249 8.23115 2.92334H7.77178C7.59053 2.9249 7.38896 2.92646 7.17178 2.92959C6.55146 2.9374 5.93115 2.95146 5.35146 2.97334C4.13271 3.02021 3.26553 3.09365 2.8249 3.21084C2.45647 3.31028 2.12064 3.5048 1.85107 3.77492C1.58149 4.04504 1.38765 4.38126 1.28896 4.7499C1.19365 5.10303 1.12646 5.57334 1.07959 6.1374C1.04521 6.54678 1.02334 6.98115 1.01084 7.41709C1.00615 7.56865 1.00459 7.71084 1.00303 7.8374C1.00303 7.88271 1.00146 7.92178 1.00146 7.95615V8.04365C1.00146 8.07803 1.00146 8.11709 1.00303 8.1624C1.00459 8.28897 1.00771 8.43115 1.01084 8.58271C1.02334 9.01865 1.04521 9.45303 1.07959 9.8624C1.12646 10.4265 1.19521 10.8968 1.28896 11.2499C1.48896 11.9983 2.07646 12.589 2.8249 12.789C3.26553 12.9077 4.13271 12.9812 5.35146 13.0265C5.93115 13.0483 6.55146 13.0624 7.17178 13.0702C7.38896 13.0733 7.59053 13.0749 7.77178 13.0765H8.23115C8.4124 13.0749 8.61396 13.0733 8.83115 13.0702C9.45146 13.0624 10.0718 13.0483 10.6515 13.0265C11.8702 12.9796 12.7374 12.9062 13.178 12.789C13.9265 12.589 14.514 11.9999 14.714 11.2499C14.8093 10.8968 14.8765 10.4265 14.9233 9.8624C14.9577 9.45303 14.9796 9.01865 14.9921 8.58271C14.9968 8.43115 14.9983 8.28897 14.9999 8.1624C14.9999 8.11709 15.0015 8.07803 15.0015 8.04365V7.95615ZM13.8765 8.0374C13.8765 8.07022 13.8765 8.10615 13.8749 8.14834C13.8733 8.27021 13.8702 8.40459 13.8671 8.5499C13.8562 8.96553 13.8343 9.38115 13.8015 9.76709C13.7593 10.2702 13.6999 10.6827 13.6265 10.9593C13.5296 11.3202 13.2452 11.6062 12.8858 11.7015C12.5577 11.789 11.7312 11.8593 10.6077 11.9015C10.039 11.9233 9.42646 11.9374 8.81553 11.9452C8.60146 11.9483 8.40303 11.9499 8.2249 11.9499H7.77803L7.1874 11.9452C6.57646 11.9374 5.96553 11.9233 5.39522 11.9015C4.27178 11.8577 3.44365 11.789 3.11709 11.7015C2.75771 11.6046 2.47334 11.3202 2.37646 10.9593C2.30303 10.6827 2.24365 10.2702 2.20146 9.76709C2.16865 9.38115 2.14834 8.96553 2.13584 8.5499C2.13115 8.40459 2.12959 8.26865 2.12803 8.14834C2.12803 8.10615 2.12646 8.06865 2.12646 8.0374V7.9624C2.12646 7.92959 2.12646 7.89365 2.12803 7.85146C2.12959 7.72959 2.13271 7.59521 2.13584 7.4499C2.14678 7.03428 2.16865 6.61865 2.20146 6.23271C2.24365 5.72959 2.30303 5.31709 2.37646 5.04053C2.47334 4.67959 2.75771 4.39365 3.11709 4.29834C3.44521 4.21084 4.27178 4.14053 5.39522 4.09834C5.96396 4.07646 6.57646 4.0624 7.1874 4.05459C7.40146 4.05146 7.5999 4.0499 7.77803 4.0499H8.2249L8.81553 4.05459C9.42646 4.0624 10.0374 4.07646 10.6077 4.09834C11.7312 4.14209 12.5593 4.21084 12.8858 4.29834C13.2452 4.39521 13.5296 4.67959 13.6265 5.04053C13.6999 5.31709 13.7593 5.72959 13.8015 6.23271C13.8343 6.61865 13.8546 7.03428 13.8671 7.4499C13.8718 7.59521 13.8733 7.73115 13.8749 7.85146C13.8749 7.89365 13.8765 7.93115 13.8765 7.9624V8.0374ZM6.61084 10.0937L10.2358 7.98428L6.61084 5.90615V10.0937Z" fill="#FFFBFB" fill-opacity="0.65"/>
</svg>
