<svg width="40" height="40" viewBox="0 0 40 40" fill="none" xmlns="http://www.w3.org/2000/svg">
<g clip-path="url(#clip0_389_118)">
<path d="M17.2029 5.24262C17.0895 5.12892 16.9548 5.0387 16.8064 4.97715C16.6581 4.9156 16.4991 4.88391 16.3385 4.88391C16.1779 4.88391 16.0188 4.9156 15.8705 4.97715C15.7222 5.0387 15.5874 5.12892 15.474 5.24262L0.822108 19.8945C0.708795 20.0081 0.618984 20.1429 0.557808 20.2913C0.496632 20.4396 0.465292 20.5985 0.465578 20.759V37.8529C0.465578 38.1767 0.594218 38.4873 0.823198 38.7162C1.05218 38.9452 1.36274 39.0739 1.68657 39.0739H12.6755C12.9993 39.0739 13.3099 38.9452 13.5389 38.7162C13.7679 38.4873 13.8965 38.1767 13.8965 37.8529V28.0849H18.7805V37.8529C18.7805 38.1767 18.9091 38.4873 19.1381 38.7162C19.3671 38.9452 19.6776 39.0739 20.0015 39.0739H30.9904C31.3142 39.0739 31.6248 38.9452 31.8538 38.7162C32.0827 38.4873 32.2114 38.1767 32.2114 37.8529V20.759C32.2117 20.5985 32.1803 20.4396 32.1191 20.2913C32.058 20.1429 31.9682 20.0081 31.8548 19.8945L28.5484 16.5905V8.54907C28.5484 8.22524 28.4198 7.91468 28.1908 7.6857C27.9618 7.45672 27.6512 7.32808 27.3274 7.32808H24.8854C24.5616 7.32808 24.251 7.45672 24.022 7.6857C23.7931 7.91468 23.6644 8.22524 23.6644 8.54907V11.7066L17.2029 5.24262ZM2.90756 36.6319V21.2645L16.3385 7.83357L29.7694 21.2645V36.6319H21.2224V26.8639C21.2224 26.5401 21.0938 26.2296 20.8648 26.0006C20.6358 25.7716 20.3253 25.643 20.0015 25.643H12.6755C12.3517 25.643 12.0411 25.7716 11.8121 26.0006C11.5831 26.2296 11.4545 26.5401 11.4545 26.8639V36.6319H2.90756Z" fill="#E6E6E6" fill-opacity="0.6"/>
<path d="M24.5289 5.24262C24.4154 5.12892 24.2807 5.0387 24.1324 4.97715C23.984 4.9156 23.825 4.88391 23.6644 4.88391C23.5038 4.88391 23.3448 4.9156 23.1964 4.97715C23.0481 5.0387 22.9134 5.12892 22.7999 5.24262L8.14804 19.8945C8.03472 20.0081 7.94491 20.1429 7.88374 20.2913C7.82256 20.4396 7.79122 20.5985 7.79151 20.759V37.8529C7.79151 38.1767 7.92015 38.4873 8.14913 38.7162C8.37811 38.9452 8.68867 39.0739 9.0125 39.0739H20.0014C20.3253 39.0739 20.6358 38.9452 20.8648 38.7162C21.0938 38.4873 21.2224 38.1767 21.2224 37.8529V28.0849H26.1064V37.8529C26.1064 38.1767 26.235 38.4873 26.464 38.7162C26.693 38.9452 27.0035 39.0739 27.3274 39.0739H38.3163C38.6401 39.0739 38.9507 38.9452 39.1797 38.7162C39.4087 38.4873 39.5373 38.1767 39.5373 37.8529V20.759C39.5376 20.5985 39.5062 20.4396 39.4451 20.2913C39.3839 20.1429 39.2941 20.0081 39.1808 19.8945L35.8743 16.5905V8.54907C35.8743 8.22524 35.7457 7.91468 35.5167 7.6857C35.2877 7.45672 34.9772 7.32808 34.6533 7.32808H32.2113C31.8875 7.32808 31.577 7.45672 31.348 7.6857C31.119 7.91468 30.9904 8.22524 30.9904 8.54907V11.7066L24.5289 5.24262ZM10.2335 36.6319V21.2645L23.6644 7.83357L37.0953 21.2645V36.6319H28.5484V26.8639C28.5484 26.5401 28.4197 26.2296 28.1908 26.0006C27.9618 25.7716 27.6512 25.643 27.3274 25.643H20.0014C19.6776 25.643 19.367 25.7716 19.1381 26.0006C18.9091 26.2296 18.7804 26.5401 18.7804 26.8639V36.6319H10.2335Z" fill="#FF9505"/>
</g>
<defs>
<clipPath id="clip0_389_118">
<rect width="39.0717" height="39.0717" fill="white" transform="translate(0.465576)"/>
</clipPath>
</defs>
</svg>
