<svg width="72" height="62" viewBox="0 0 72 62" fill="none" xmlns="http://www.w3.org/2000/svg">
<g clip-path="url(#clip0_389_472)">
<path d="M31.4161 0.526841C31.21 0.320217 30.9652 0.156283 30.6956 0.0444293C30.426 -0.0674243 30.1371 -0.125 29.8452 -0.125C29.5534 -0.125 29.2644 -0.0674243 28.9948 0.0444293C28.7253 0.156283 28.4804 0.320217 28.2743 0.526841L1.64934 27.1518C1.44344 27.3583 1.28023 27.6033 1.16907 27.8728C1.0579 28.1423 1.00095 28.4312 1.00147 28.7227V59.7852C1.00147 60.3737 1.23523 60.938 1.65133 61.3541C2.06742 61.7702 2.63177 62.004 3.22022 62.004H23.189C23.7774 62.004 24.3418 61.7702 24.7579 61.3541C25.174 60.938 25.4077 60.3737 25.4077 59.7852V42.0352H34.2827V59.7852C34.2827 60.3737 34.5165 60.938 34.9326 61.3541C35.3487 61.7702 35.913 62.004 36.5015 62.004H56.4702C57.0587 62.004 57.623 61.7702 58.0391 61.3541C58.4552 60.938 58.689 60.3737 58.689 59.7852V28.7227C58.6895 28.4312 58.6325 28.1423 58.5214 27.8728C58.4102 27.6033 58.247 27.3583 58.0411 27.1518L52.0327 21.1479V6.53522C52.0327 5.94677 51.799 5.38242 51.3829 4.96632C50.9668 4.55023 50.4024 4.31647 49.814 4.31647H45.3765C44.788 4.31647 44.2237 4.55023 43.8076 4.96632C43.3915 5.38242 43.1577 5.94677 43.1577 6.53522V12.2729L31.4161 0.526841ZM5.43897 57.5665V29.6413L29.8452 5.23503L54.2515 29.6413V57.5665H38.7202V39.8165C38.7202 39.228 38.4865 38.6637 38.0704 38.2476C37.6543 37.8315 37.0899 37.5977 36.5015 37.5977H23.189C22.6005 37.5977 22.0362 37.8315 21.6201 38.2476C21.204 38.6637 20.9702 39.228 20.9702 39.8165V57.5665H5.43897Z" fill="#E6E6E6" fill-opacity="0.6"/>
<path d="M44.7286 0.526841C44.5225 0.320217 44.2776 0.156283 44.0081 0.0444293C43.7385 -0.0674243 43.4496 -0.125 43.1577 -0.125C42.8659 -0.125 42.5769 -0.0674243 42.3073 0.0444293C42.0378 0.156283 41.7929 0.320217 41.5868 0.526841L14.9618 27.1518C14.7559 27.3583 14.5927 27.6033 14.4816 27.8728C14.3704 28.1423 14.3134 28.4312 14.314 28.7227V59.7852C14.314 60.3737 14.5477 60.938 14.9638 61.3541C15.3799 61.7702 15.9443 62.004 16.5327 62.004H36.5015C37.0899 62.004 37.6543 61.7702 38.0704 61.3541C38.4865 60.938 38.7202 60.3737 38.7202 59.7852V42.0352H47.5952V59.7852C47.5952 60.3737 47.829 60.938 48.2451 61.3541C48.6612 61.7702 49.2255 62.004 49.814 62.004H69.7827C70.3712 62.004 70.9355 61.7702 71.3516 61.3541C71.7677 60.938 72.0015 60.3737 72.0015 59.7852V28.7227C72.002 28.4312 71.945 28.1423 71.8339 27.8728C71.7227 27.6033 71.5595 27.3583 71.3536 27.1518L65.3452 21.1479V6.53522C65.3452 5.94677 65.1115 5.38242 64.6954 4.96632C64.2793 4.55023 63.7149 4.31647 63.1265 4.31647H58.689C58.1005 4.31647 57.5362 4.55023 57.1201 4.96632C56.704 5.38242 56.4702 5.94677 56.4702 6.53522V12.2729L44.7286 0.526841ZM18.7515 57.5665V29.6413L43.1577 5.23503L67.564 29.6413V57.5665H52.0327V39.8165C52.0327 39.228 51.799 38.6637 51.3829 38.2476C50.9668 37.8315 50.4024 37.5977 49.814 37.5977H36.5015C35.913 37.5977 35.3487 37.8315 34.9326 38.2476C34.5165 38.6637 34.2827 39.228 34.2827 39.8165V57.5665H18.7515Z" fill="#FF9505"/>
</g>
<defs>
<clipPath id="clip0_389_472">
<rect width="71" height="62" fill="white" transform="translate(0.501465)"/>
</clipPath>
</defs>
</svg>
