<svg width="17" height="16" viewBox="0 0 17 16" fill="none" xmlns="http://www.w3.org/2000/svg">
<path d="M15.9549 12.5474C15.9549 12.8061 15.895 13.0719 15.7677 13.3305C15.6404 13.5891 15.4757 13.8334 15.2585 14.0633C14.8916 14.4512 14.4873 14.7314 14.0305 14.911C13.5812 15.0906 13.0945 15.184 12.5704 15.184C11.8066 15.184 10.9904 15.0115 10.1293 14.6595C9.26817 14.3075 8.40706 13.8334 7.55343 13.2371C6.69232 12.6336 5.87613 11.9655 5.09738 11.2256C4.32612 10.4784 3.62974 9.69537 3.00824 8.87639C2.39423 8.05741 1.90002 7.23843 1.5406 6.42664C1.18118 5.60766 1.00146 4.8246 1.00146 4.07746C1.00146 3.58895 1.09132 3.12199 1.27103 2.69095C1.45074 2.25272 1.73529 1.85042 2.13215 1.49122C2.61138 1.03862 3.13553 0.815918 3.68964 0.815918C3.89931 0.815918 4.10897 0.859022 4.29617 0.94523C4.49085 1.03144 4.66308 1.16075 4.79786 1.34754L6.53507 3.69671C6.66985 3.87631 6.76719 4.04154 6.83459 4.19959C6.90198 4.35046 6.93942 4.50132 6.93942 4.63782C6.93942 4.81023 6.887 4.98265 6.78217 5.14788C6.68483 5.31312 6.54256 5.48553 6.36284 5.65795L5.79376 6.22549C5.71139 6.30451 5.67395 6.3979 5.67395 6.51285C5.67395 6.57032 5.68144 6.62061 5.69642 6.67808C5.71888 6.73555 5.74134 6.77866 5.75632 6.82176C5.8911 7.05883 6.12323 7.36775 6.4527 7.74132C6.78966 8.11489 7.14908 8.49564 7.53845 8.87639C7.9428 9.25714 8.33218 9.60916 8.72904 9.93244C9.11841 10.2485 9.4404 10.4641 9.69499 10.5934C9.73243 10.6077 9.77736 10.6293 9.82977 10.6508C9.88967 10.6724 9.94958 10.6796 10.017 10.6796C10.1443 10.6796 10.2416 10.6365 10.324 10.5575L10.8931 10.0187C11.0803 9.83905 11.26 9.70255 11.4322 9.61635C11.6044 9.51577 11.7766 9.46548 11.9638 9.46548C12.1061 9.46548 12.2559 9.49422 12.4206 9.55887C12.5853 9.62353 12.7576 9.71692 12.9448 9.83905L15.4233 11.5273C15.618 11.6566 15.7527 11.8075 15.8351 11.9871C15.91 12.1667 15.9549 12.3463 15.9549 12.5474Z" stroke="white" stroke-opacity="0.8" stroke-miterlimit="10"/>
<path d="M13.3613 5.84497C13.3613 5.41393 13.0093 4.753 12.4852 4.2142C12.0059 3.7185 11.3695 3.33057 10.7405 3.33057" stroke="white" stroke-opacity="0.8" stroke-linecap="round" stroke-linejoin="round"/>
<path d="M15.9821 5.84473C15.9821 3.06452 13.6383 0.815918 10.7405 0.815918" stroke="white" stroke-opacity="0.8" stroke-linecap="round" stroke-linejoin="round"/>
</svg>
