<svg width="24" height="24" viewBox="0 0 24 24" fill="none" xmlns="http://www.w3.org/2000/svg">
<path d="M12.3764 10.5H15.0014V9H13.5014V8.25H12.0014V9.0375C11.5457 9.13003 11.1407 9.38858 10.8649 9.76295C10.5891 10.1373 10.4623 10.6008 10.509 11.0634C10.5557 11.5261 10.7727 11.9548 11.1178 12.2665C11.4629 12.5781 11.9114 12.7505 12.3764 12.75H13.1264C13.2259 12.75 13.3212 12.7895 13.3916 12.8598C13.4619 12.9302 13.5014 13.0255 13.5014 13.125C13.5014 13.2245 13.4619 13.3198 13.3916 13.3902C13.3212 13.4605 13.2259 13.5 13.1264 13.5H10.5014V15H12.0014V15.75H13.5014V14.9625C13.9571 14.87 14.3621 14.6114 14.6379 14.2371C14.9137 13.8627 15.0405 13.3992 14.9938 12.9366C14.9471 12.4739 14.7301 12.0452 14.385 11.7335C14.04 11.4219 13.5914 11.2495 13.1264 11.25H12.3764C12.2769 11.25 12.1816 11.2105 12.1112 11.1402C12.0409 11.0698 12.0014 10.9745 12.0014 10.875C12.0014 10.7755 12.0409 10.6802 12.1112 10.6098C12.1816 10.5395 12.2769 10.5 12.3764 10.5Z" fill="#1B1B1B" fill-opacity="0.55"/>
<path d="M21.7515 9.75H20.2365C20.2149 9.15745 20.072 8.57562 19.8166 8.04051C19.5611 7.50541 19.1986 7.0284 18.7515 6.639V3.75C18.7515 3.61072 18.7127 3.47418 18.6395 3.3557C18.5662 3.23722 18.4615 3.14147 18.3369 3.07918C18.2123 3.01689 18.0728 2.99052 17.9341 3.00303C17.7954 3.01554 17.6629 3.06643 17.5515 3.15L14.7517 5.25H11.2515C7.11896 5.25 4.15421 7.68075 3.79046 11.25H3.75146C3.55255 11.25 3.36179 11.171 3.22113 11.0303C3.08048 10.8897 3.00146 10.6989 3.00146 10.5V9H1.50146V10.5C1.50206 11.0966 1.7393 11.6685 2.16113 12.0903C2.58296 12.5122 3.15491 12.7494 3.75146 12.75H3.80397C3.91273 13.7334 4.23235 14.6819 4.74102 15.5306C5.24968 16.3792 5.93543 17.1082 6.75146 17.6677V20.25C6.75146 20.4489 6.83048 20.6397 6.97114 20.7803C7.11179 20.921 7.30255 21 7.50146 21H10.5015C10.7004 21 10.8911 20.921 11.0318 20.7803C11.1724 20.6397 11.2515 20.4489 11.2515 20.25V18.75H13.5015V20.25C13.5015 20.4489 13.5805 20.6397 13.7211 20.7803C13.8618 20.921 14.0526 21 14.2515 21H17.2515C17.4504 21 17.6411 20.921 17.7818 20.7803C17.9224 20.6397 18.0015 20.4489 18.0015 20.25V17.7277C18.5432 17.4709 19.0169 17.0901 19.3842 16.6163C19.7515 16.1424 20.0021 15.5887 20.1157 15H21.7515C21.9504 15 22.1411 14.921 22.2818 14.7803C22.4224 14.6397 22.5015 14.4489 22.5015 14.25V10.5C22.5015 10.3011 22.4224 10.1103 22.2818 9.96967C22.1411 9.82902 21.9504 9.75 21.7515 9.75ZM21.0015 13.5H18.8445C18.6157 15.5647 18.2265 16.1138 16.5015 16.7362V19.5H15.0015V17.25H9.75146V19.5H8.25146V16.7835C7.34839 16.3539 6.58652 15.6757 6.05517 14.8284C5.52382 13.9812 5.24503 13 5.25146 12C5.25146 8.37375 8.26496 6.75 11.2515 6.75H15.2512L17.2515 5.25V7.332C19.065 8.727 18.6862 9.7215 18.765 11.25H21.0015V13.5Z" fill="#1B1B1B" fill-opacity="0.55"/>
</svg>
