<svg width="24" height="24" viewBox="0 0 24 24" fill="none" xmlns="http://www.w3.org/2000/svg">
<g clip-path="url(#clip0_389_382)">
<path d="M7.50146 22.5C8.32989 22.5 9.00146 21.8284 9.00146 21C9.00146 20.1716 8.32989 19.5 7.50146 19.5C6.67304 19.5 6.00146 20.1716 6.00146 21C6.00146 21.8284 6.67304 22.5 7.50146 22.5Z" fill="#1B1B1B" fill-opacity="0.55"/>
<path d="M18.0015 22.5C18.8299 22.5 19.5015 21.8284 19.5015 21C19.5015 20.1716 18.8299 19.5 18.0015 19.5C17.173 19.5 16.5015 20.1716 16.5015 21C16.5015 21.8284 17.173 22.5 18.0015 22.5Z" fill="#1B1B1B" fill-opacity="0.55"/>
<path d="M21.0015 5.25015H4.36647L3.75146 2.10015C3.7164 1.9282 3.62215 1.77398 3.48511 1.66435C3.34807 1.55472 3.17692 1.49661 3.00146 1.50015H0.00146484V3.00015H2.38646L5.25146 17.4002C5.28653 17.5721 5.38078 17.7263 5.51782 17.836C5.65486 17.9456 5.826 18.0037 6.00146 18.0002H19.5015V16.5002H6.61646L6.00146 13.5002H19.5015C19.6748 13.5044 19.8443 13.4484 19.9811 13.3418C20.1178 13.2351 20.2134 13.0843 20.2515 12.9152L21.7515 6.16515C21.7766 6.05387 21.776 5.93832 21.7498 5.8273C21.7235 5.71628 21.6723 5.61271 21.5999 5.52448C21.5276 5.43625 21.4361 5.36568 21.3324 5.31814C21.2287 5.2706 21.1155 5.24735 21.0015 5.25015ZM18.9015 12.0002H5.71646L4.66646 6.75015H20.064L18.9015 12.0002Z" fill="#1B1B1B" fill-opacity="0.55"/>
</g>
<defs>
<clipPath id="clip0_389_382">
<rect width="24" height="24" fill="white" transform="translate(0.00146484)"/>
</clipPath>
</defs>
</svg>
