<svg width="25" height="24" viewBox="0 0 25 24" fill="none" xmlns="http://www.w3.org/2000/svg">
<path d="M22.25 13.125H4.25V4.6875C4.24913 4.36975 4.31129 4.05498 4.4329 3.76142C4.5545 3.46786 4.73312 3.20133 4.95842 2.97727L4.97717 2.95852C5.33026 2.60594 5.7836 2.37098 6.27524 2.28572C6.76688 2.20046 7.27286 2.26907 7.72405 2.48217C7.29794 3.19064 7.12083 4.02119 7.22086 4.84185C7.32089 5.66251 7.69233 6.4262 8.27614 7.01156L8.78947 7.52489L7.84461 8.4698L8.9052 9.53039L9.85006 8.58553L15.0855 3.3502L16.0303 2.40534L14.9697 1.3447L14.0248 2.28956L13.5115 1.77623C12.8969 1.16336 12.0867 0.785558 11.2222 0.708671C10.3576 0.631784 9.49353 0.860685 8.78042 1.35548C8.02846 0.8806 7.13734 0.675589 6.25346 0.774129C5.36958 0.87267 4.54549 1.2689 3.91658 1.89773L3.89783 1.91648C3.53279 2.27953 3.24338 2.71137 3.04635 3.18702C2.84933 3.66266 2.7486 4.17266 2.75 4.6875V13.125H1.25V14.625H2.75V16.0641C2.74997 16.185 2.76947 16.3051 2.80775 16.4198L4.20312 20.6057C4.27759 20.8298 4.42078 21.0248 4.61235 21.1629C4.80392 21.301 5.03413 21.3752 5.27028 21.375H5.87497L5.32812 23.25H6.89061L7.4375 21.375H17.1922L17.7547 23.25H19.3203L18.7578 21.375H19.7295C19.9657 21.3752 20.196 21.301 20.3876 21.1629C20.5792 21.0248 20.7224 20.8299 20.7969 20.6057L22.1922 16.4198C22.2304 16.3051 22.25 16.185 22.25 16.0641V14.625H23.75V13.125H22.25ZM9.33687 2.83687C9.75012 2.42453 10.3101 2.19295 10.8939 2.19295C11.4776 2.19295 12.0376 2.42453 12.4508 2.83687L12.9641 3.3502L9.8502 6.46406L9.33687 5.95083C8.92455 5.53757 8.69298 4.97763 8.69298 4.39385C8.69298 3.81007 8.92455 3.25013 9.33687 2.83687ZM20.75 16.0031L19.4594 19.875H5.54056L4.25 16.0031V14.625H20.75V16.0031Z" fill="#FFFBFB" fill-opacity="0.65"/>
</svg>
