<svg width="17" height="16" viewBox="0 0 17 16" fill="none" xmlns="http://www.w3.org/2000/svg">
<g clip-path="url(#clip0_389_156)">
<path d="M15.0015 8.74992H3.00146V3.12492C3.00088 2.91309 3.04233 2.70324 3.1234 2.50753C3.20446 2.31182 3.32354 2.13414 3.47375 1.98476L3.48625 1.97226C3.72164 1.73721 4.02386 1.58057 4.35162 1.52373C4.67939 1.46689 5.01671 1.51263 5.3175 1.6547C5.03342 2.12701 4.91535 2.68071 4.98204 3.22782C5.04873 3.77493 5.29635 4.28405 5.68556 4.67429L6.02778 5.01651L5.39787 5.64645L6.10493 6.35351L6.73484 5.72361L10.2251 2.23339L10.855 1.60348L10.1479 0.896387L9.518 1.52629L9.17578 1.18407C8.76605 0.77549 8.22594 0.523624 7.64958 0.472366C7.07322 0.421108 6.49715 0.573708 6.02175 0.903575C5.52044 0.586985 4.92636 0.450311 4.33711 0.516005C3.74785 0.581699 3.19846 0.845853 2.77918 1.26507L2.76668 1.27757C2.52332 1.5196 2.33038 1.8075 2.19903 2.1246C2.06768 2.44169 2.00053 2.7817 2.00146 3.12492V8.74992H1.00146V9.74992H2.00146V10.7093C2.00144 10.7899 2.01444 10.87 2.03996 10.9465L2.97021 13.7371C3.01986 13.8865 3.11532 14.0164 3.24303 14.1085C3.37074 14.2006 3.52422 14.25 3.68165 14.2499H4.08478L3.72021 15.4999H4.76187L5.12646 14.2499H11.6296L12.0046 15.4999H13.0483L12.6733 14.2499H13.3212C13.4786 14.2501 13.6321 14.2006 13.7599 14.1085C13.8876 14.0165 13.9831 13.8865 14.0327 13.7371L14.9629 10.9465C14.9884 10.87 15.0014 10.7899 15.0015 10.7093V9.74992H16.0015V8.74992H15.0015ZM6.39271 1.89117C6.66821 1.61627 7.04151 1.46188 7.4307 1.46188C7.81989 1.46188 8.19319 1.61627 8.46868 1.89117L8.81084 2.23339L6.73493 4.30929L6.39271 3.96714C6.11783 3.69163 5.96345 3.31834 5.96345 2.92915C5.96345 2.53997 6.11783 2.16667 6.39271 1.89117ZM14.0015 10.6687L13.1411 13.2499H3.86184L3.00146 10.6687V9.74992H14.0015V10.6687Z" fill="#FFFBFB" fill-opacity="0.65"/>
</g>
<defs>
<clipPath id="clip0_389_156">
<rect width="16" height="16" fill="white" transform="translate(0.501465)"/>
</clipPath>
</defs>
</svg>
