<svg width="24" height="24" viewBox="0 0 24 24" fill="none" xmlns="http://www.w3.org/2000/svg">
<g clip-path="url(#clip0_389_397)">
<path d="M20.7148 5.1397C20.5764 4.94223 20.3925 4.78099 20.1786 4.66964C19.9647 4.55829 19.7271 4.50011 19.486 4.5H2.25146C1.85378 4.50045 1.47251 4.65863 1.1913 4.93983C0.91009 5.22104 0.751911 5.60231 0.751465 6V17.625H2.67718C2.80896 18.3611 3.19538 19.0273 3.76883 19.5072C4.34227 19.9871 5.06621 20.2501 5.81396 20.2501C6.56172 20.2501 7.28566 19.9871 7.8591 19.5072C8.43255 19.0273 8.81897 18.3611 8.95075 17.625H14.6772C14.809 18.3611 15.1954 19.0273 15.7688 19.5072C16.3423 19.9871 17.0662 20.2501 17.814 20.2501C18.5617 20.2501 19.2857 19.9871 19.8591 19.5072C20.4325 19.0273 20.819 18.3611 20.9507 17.625H23.2515V9.11817C23.2518 8.8873 23.1808 8.66197 23.0481 8.47303L20.7148 5.1397ZM8.43896 6H15.189V10.5H8.43896V6ZM2.25146 6H6.93896V10.5H2.25146V6ZM5.81396 18.75C5.48021 18.75 5.15395 18.651 4.87644 18.4656C4.59893 18.2802 4.38264 18.0166 4.25492 17.7083C4.1272 17.3999 4.09378 17.0606 4.15889 16.7333C4.224 16.4059 4.38472 16.1053 4.62072 15.8693C4.85672 15.6333 5.15741 15.4725 5.48475 15.4074C5.81209 15.3423 6.15139 15.3757 6.45974 15.5035C6.76809 15.6312 7.03164 15.8475 7.21707 16.125C7.40249 16.4025 7.50146 16.7287 7.50146 17.0625C7.50097 17.5099 7.32302 17.9388 7.00666 18.2552C6.6903 18.5716 6.26137 18.7495 5.81396 18.75ZM17.814 18.75C17.4802 18.75 17.1539 18.651 16.8764 18.4656C16.5989 18.2802 16.3826 18.0166 16.2549 17.7083C16.1272 17.3999 16.0938 17.0606 16.1589 16.7333C16.224 16.4059 16.3847 16.1053 16.6207 15.8693C16.8567 15.6333 17.1574 15.4725 17.4847 15.4074C17.8121 15.3423 18.1514 15.3757 18.4597 15.5035C18.7681 15.6312 19.0316 15.8475 19.2171 16.125C19.4025 16.4025 19.5015 16.7287 19.5015 17.0625C19.501 17.5099 19.323 17.9388 19.0067 18.2552C18.6903 18.5716 18.2614 18.7495 17.814 18.75ZM21.7515 16.125H20.8606C20.6601 15.4734 20.2561 14.9033 19.7077 14.4983C19.1594 14.0933 18.4957 13.8747 17.814 13.8747C17.1323 13.8747 16.4685 14.0933 15.9202 14.4983C15.3719 14.9033 14.9678 15.4734 14.7674 16.125H8.86056C8.66012 15.4734 8.25607 14.9033 7.70773 14.4983C7.15939 14.0933 6.49566 13.8747 5.81396 13.8747C5.13227 13.8747 4.46854 14.0933 3.9202 14.4983C3.37186 14.9033 2.96781 15.4734 2.76737 16.125H2.25146V12H21.7515V16.125ZM21.7515 10.5H16.689V6H19.486L21.7515 9.23639V10.5Z" fill="#1B1B1B" fill-opacity="0.55"/>
</g>
<defs>
<clipPath id="clip0_389_397">
<rect width="24" height="24" fill="white" transform="translate(0.00146484)"/>
</clipPath>
</defs>
</svg>
