<svg width="16" height="16" viewBox="0 0 16 16" fill="none" xmlns="http://www.w3.org/2000/svg">
<g clip-path="url(#clip0_389_211)">
<path d="M14.5015 8.74992H2.50146V3.12492C2.50088 2.91309 2.54233 2.70324 2.6234 2.50753C2.70446 2.31182 2.82354 2.13414 2.97375 1.98476L2.98625 1.97226C3.22164 1.73721 3.52386 1.58057 3.85162 1.52373C4.17939 1.46689 4.51671 1.51263 4.8175 1.6547C4.53342 2.12701 4.41535 2.68071 4.48204 3.22782C4.54873 3.77493 4.79635 4.28405 5.18556 4.67429L5.52778 5.01651L4.89787 5.64645L5.60493 6.35351L6.23484 5.72361L9.72512 2.23339L10.355 1.60348L9.64793 0.896387L9.018 1.52629L8.67578 1.18407C8.26605 0.77549 7.72594 0.523624 7.14958 0.472366C6.57322 0.421108 5.99715 0.573708 5.52175 0.903575C5.02044 0.586985 4.42636 0.450311 3.83711 0.516005C3.24785 0.581699 2.69846 0.845853 2.27918 1.26507L2.26668 1.27757C2.02332 1.5196 1.83038 1.8075 1.69903 2.1246C1.56768 2.44169 1.50053 2.7817 1.50146 3.12492V8.74992H0.501465V9.74992H1.50146V10.7093C1.50144 10.7899 1.51444 10.87 1.53996 10.9465L2.47021 13.7371C2.51986 13.8865 2.61532 14.0164 2.74303 14.1085C2.87074 14.2006 3.02422 14.25 3.18165 14.2499H3.58478L3.22021 15.4999H4.26187L4.62646 14.2499H11.1296L11.5046 15.4999H12.5483L12.1733 14.2499H12.8212C12.9786 14.2501 13.1321 14.2006 13.2599 14.1085C13.3876 14.0165 13.4831 13.8865 13.5327 13.7371L14.4629 10.9465C14.4884 10.87 14.5014 10.7899 14.5015 10.7093V9.74992H15.5015V8.74992H14.5015ZM5.89271 1.89117C6.16821 1.61627 6.54151 1.46188 6.9307 1.46188C7.31989 1.46188 7.69319 1.61627 7.96868 1.89117L8.31084 2.23339L6.23493 4.30929L5.89271 3.96714C5.61783 3.69163 5.46345 3.31834 5.46345 2.92915C5.46345 2.53997 5.61783 2.16667 5.89271 1.89117ZM13.5015 10.6687L12.6411 13.2499H3.36184L2.50146 10.6687V9.74992H13.5015V10.6687Z" fill="#FFFBFB" fill-opacity="0.65"/>
</g>
<defs>
<clipPath id="clip0_389_211">
<rect width="16" height="16" fill="white" transform="translate(0.00146484)"/>
</clipPath>
</defs>
</svg>
