<svg width="24" height="24" viewBox="0 0 24 24" fill="none" xmlns="http://www.w3.org/2000/svg">
<g clip-path="url(#clip0_389_372)">
<path d="M7.50146 14.25H9.00146V15.75H7.50146V14.25ZM11.2515 14.25H12.7515V15.75H11.2515V14.25ZM15.0015 14.25H16.5015V15.75H15.0015V14.25Z" fill="#1B1B1B" fill-opacity="0.55"/>
<path d="M20.6265 21.75V4.125H17.2515V0.75H6.75146V4.125H3.37646V21.75H0.751465V23.25H23.2515V21.75H20.6265ZM8.25146 2.25H15.7515V9.75H8.25146V2.25ZM19.1265 21.75H12.7515V18.75H11.2515V21.75H4.87646V5.625H6.75146V11.25H17.2515V5.625H19.1265V21.75Z" fill="#1B1B1B" fill-opacity="0.55"/>
<path d="M12.7515 3.75H11.2515V5.25H9.75146V6.75H11.2515V8.25H12.7515V6.75H14.2515V5.25H12.7515V3.75Z" fill="#1B1B1B" fill-opacity="0.55"/>
</g>
<defs>
<clipPath id="clip0_389_372">
<rect width="24" height="24" fill="white" transform="translate(0.00146484)"/>
</clipPath>
</defs>
</svg>
