<svg width="17" height="17" viewBox="0 0 17 17" fill="none" xmlns="http://www.w3.org/2000/svg">
<g clip-path="url(#clip0_389_410)">
<path d="M11.9297 9.49646C11.7234 9.13043 11.4442 8.81062 11.1094 8.55682C10.7746 8.30301 10.3912 8.12062 9.98306 8.02091C9.60009 7.90601 9.21142 7.81107 8.81861 7.73646V3.70535C9.59955 3.78912 10.3446 4.07733 10.9786 4.54091C11.0224 4.57972 11.0734 4.60953 11.1287 4.62864C11.184 4.64774 11.2425 4.65577 11.3009 4.65227C11.3593 4.64876 11.4164 4.63378 11.469 4.60819C11.5216 4.5826 11.5687 4.5469 11.6075 4.50313C11.6463 4.45936 11.6761 4.40837 11.6952 4.35307C11.7143 4.29778 11.7224 4.23926 11.7189 4.18086C11.7154 4.12246 11.7004 4.06533 11.6748 4.01272C11.6492 3.96011 11.6135 3.91305 11.5697 3.87424C10.7743 3.26162 9.81912 2.89128 8.81861 2.80757V1.4298C8.81861 1.31192 8.77179 1.19888 8.68844 1.11553C8.60509 1.03218 8.49204 0.985352 8.37417 0.985352C8.25629 0.985352 8.14325 1.03218 8.0599 1.11553C7.97655 1.19888 7.92972 1.31192 7.92972 1.4298V2.76313C5.97417 2.80757 4.89417 3.78091 4.56528 4.62091C4.34587 5.16182 4.32503 5.76293 4.50644 6.31774C4.68785 6.87255 5.0598 7.34522 5.55639 7.65202C6.27923 8.09265 7.08887 8.37163 7.92972 8.4698V12.5409C6.76942 12.4825 5.65789 12.0559 4.75639 11.3231C4.71616 11.2753 4.66627 11.2364 4.61 11.2091C4.55373 11.1818 4.49233 11.1667 4.42982 11.1648C4.36732 11.1629 4.30511 11.1742 4.24726 11.1979C4.18941 11.2217 4.13723 11.2574 4.09413 11.3027C4.05102 11.348 4.01796 11.4019 3.99711 11.4609C3.97626 11.5198 3.96809 11.5825 3.97312 11.6449C3.97816 11.7072 3.9963 11.7678 4.02635 11.8226C4.05639 11.8774 4.09768 11.9253 4.1475 11.9631C5.21058 12.8581 6.54117 13.3741 7.92972 13.4298V14.7631C7.92972 14.881 7.97655 14.9941 8.0599 15.0774C8.14325 15.1607 8.25629 15.2076 8.37417 15.2076C8.49204 15.2076 8.60509 15.1607 8.68844 15.0774C8.77179 14.9941 8.81861 14.881 8.81861 14.7631V13.4298C10.0719 13.3454 11.5164 12.9454 12.0631 11.3142C12.162 11.0175 12.2011 10.704 12.1782 10.392C12.1553 10.08 12.0709 9.77564 11.9297 9.49646ZM6.05861 6.90535C5.73408 6.71217 5.4891 6.40955 5.36771 6.05191C5.24632 5.69427 5.25649 5.30506 5.39639 4.95424C5.44528 4.82091 5.94306 3.70535 7.92972 3.65202V7.56313C7.26672 7.47781 6.62915 7.25368 6.05861 6.90535ZM11.2186 11.012C10.8986 11.9631 10.1875 12.4209 8.81861 12.5231V8.64313C9.10306 8.70535 9.39639 8.77646 9.7075 8.8698C10.0014 8.93655 10.2786 9.06238 10.5224 9.23964C10.7661 9.4169 10.9712 9.64188 11.1253 9.90091C11.2996 10.2451 11.3331 10.6436 11.2186 11.012Z" fill="#FFFBFB" fill-opacity="0.65"/>
</g>
<defs>
<clipPath id="clip0_389_410">
<rect width="16" height="16" fill="white" transform="translate(0.374268 0.0966797)"/>
</clipPath>
</defs>
</svg>
