<svg width="16" height="16" viewBox="0 0 16 16" fill="none" xmlns="http://www.w3.org/2000/svg">
<path d="M10.8016 2.3999C11.3093 2.39982 11.7981 2.59289 12.1688 2.93993C12.5395 3.28698 12.7643 3.76202 12.7976 4.2687L12.8016 4.3999V6.4399C13.2302 6.52757 13.6183 6.75334 13.9065 7.08264C14.1946 7.41193 14.3668 7.82659 14.3968 8.2631L14.4016 8.3999V13.1999C14.4017 13.2999 14.3645 13.3963 14.2972 13.4701C14.2298 13.544 14.1373 13.59 14.0377 13.599C13.9382 13.608 13.8388 13.5795 13.7593 13.5189C13.6798 13.4584 13.6258 13.3703 13.608 13.2719L13.6016 13.1999V11.1999H2.40156V13.1999C2.40175 13.2999 2.3645 13.3963 2.29716 13.4701C2.22981 13.544 2.13725 13.59 2.03771 13.599C1.93816 13.608 1.83883 13.5795 1.7593 13.5189C1.67976 13.4584 1.62577 13.3703 1.60796 13.2719L1.60156 13.1999V8.3999C1.60147 7.93884 1.76068 7.49191 2.05224 7.13474C2.3438 6.77758 2.74982 6.53211 3.20156 6.4399V4.3999C3.20148 3.89213 3.39455 3.40333 3.74159 3.03267C4.08864 2.662 4.56368 2.43721 5.07036 2.4039L5.20156 2.3999H10.8016ZM12.4016 7.1999H3.60156C3.30338 7.1999 3.01588 7.31091 2.79508 7.5113C2.57427 7.7117 2.43599 7.98712 2.40716 8.2839L2.40156 8.3999V10.3999H13.6016V8.3999C13.6016 8.10172 13.4906 7.81422 13.2902 7.59342C13.0898 7.37261 12.8143 7.23433 12.5176 7.2055L12.4016 7.1999ZM10.8016 3.1999H5.20156C4.90326 3.19992 4.61565 3.31104 4.39483 3.5116C4.17401 3.71216 4.0358 3.98777 4.00716 4.2847L4.00156 4.3999V6.3999H4.80156V5.9999C4.80156 5.89382 4.84371 5.79207 4.91872 5.71706C4.99373 5.64205 5.09548 5.5999 5.20156 5.5999H7.20156C7.30765 5.5999 7.40939 5.64205 7.48441 5.71706C7.55942 5.79207 7.60156 5.89382 7.60156 5.9999V6.3999H8.40156V5.9999C8.40156 5.89382 8.44371 5.79207 8.51872 5.71706C8.59373 5.64205 8.69548 5.5999 8.80156 5.5999H10.8016C10.9076 5.5999 11.0094 5.64205 11.0844 5.71706C11.1594 5.79207 11.2016 5.89382 11.2016 5.9999V6.3999H12.0016V4.3999C12.0016 4.10172 11.8906 3.81422 11.6902 3.59342C11.4898 3.37261 11.2143 3.23433 10.9176 3.2055L10.8016 3.1999Z" fill="#FFFBFB" fill-opacity="0.65"/>
</svg>
