<svg width="24" height="24" viewBox="0 0 24 24" fill="none" xmlns="http://www.w3.org/2000/svg">
<path d="M5.25146 1.5C5.45038 1.5 5.64114 1.57902 5.78179 1.71967C5.92245 1.86032 6.00146 2.05109 6.00146 2.25V6.75C6.00122 7.21549 6.14536 7.6696 6.41401 8.04974C6.68266 8.42988 7.0626 8.71734 7.50146 8.8725V2.25C7.50146 2.05109 7.58048 1.86032 7.72113 1.71967C7.86179 1.57902 8.05255 1.5 8.25146 1.5C8.45038 1.5 8.64114 1.57902 8.78179 1.71967C8.92245 1.86032 9.00146 2.05109 9.00146 2.25V8.8725C9.44033 8.71734 9.82027 8.42988 10.0889 8.04974C10.3576 7.6696 10.5017 7.21549 10.5015 6.75V2.25C10.5015 2.05109 10.5805 1.86032 10.7211 1.71967C10.8618 1.57902 11.0526 1.5 11.2515 1.5C11.4504 1.5 11.6411 1.57902 11.7818 1.71967C11.9224 1.86032 12.0015 2.05109 12.0015 2.25V6.75C12.0016 7.61449 11.7031 8.45249 11.1564 9.12218C10.6098 9.79186 9.84849 10.2521 9.00146 10.425V21.75C9.00146 21.9489 8.92245 22.1397 8.78179 22.2803C8.64114 22.421 8.45038 22.5 8.25146 22.5C8.05255 22.5 7.86179 22.421 7.72113 22.2803C7.58048 22.1397 7.50146 21.9489 7.50146 21.75V10.425C6.65444 10.2521 5.89317 9.79186 5.34649 9.12218C4.7998 8.45249 4.50129 7.61449 4.50146 6.75V2.25C4.50146 2.05109 4.58048 1.86032 4.72113 1.71967C4.86179 1.57902 5.05255 1.5 5.25146 1.5ZM15.72 3.7185C15.9585 3.4785 16.227 3.294 16.5015 3.1725V10.5H15.0015V5.25C15.0015 4.7445 15.2625 4.1745 15.72 3.7185ZM16.5015 12V21.75C16.5015 21.9489 16.5805 22.1397 16.7211 22.2803C16.8618 22.421 17.0526 22.5 17.2515 22.5C17.4504 22.5 17.6411 22.421 17.7818 22.2803C17.9224 22.1397 18.0015 21.9489 18.0015 21.75V2.25C18.0015 2.05109 17.9224 1.86032 17.7818 1.71967C17.6411 1.57902 17.4504 1.5 17.2515 1.5C16.257 1.5 15.327 1.989 14.658 2.6565C13.9905 3.3255 13.5015 4.2555 13.5015 5.25V11.25C13.5015 11.4489 13.5805 11.6397 13.7211 11.7803C13.8618 11.921 14.0526 12 14.2515 12H16.5015Z" fill="#1B1B1B" fill-opacity="0.55"/>
</svg>
