<svg width="25" height="24" viewBox="0 0 25 24" fill="none" xmlns="http://www.w3.org/2000/svg">
<path d="M16.7 3.59998C17.4617 3.59986 18.1949 3.88945 18.7509 4.41002C19.3069 4.93059 19.6441 5.64315 19.694 6.40318L19.7 6.59998V9.65998C20.343 9.79148 20.9252 10.1301 21.3574 10.6241C21.7895 11.118 22.0479 11.74 22.0928 12.3948L22.1 12.6V19.8C22.1003 19.9499 22.0444 20.0945 21.9434 20.2053C21.8424 20.3161 21.7036 20.3851 21.5542 20.3986C21.4049 20.4122 21.2559 20.3693 21.1366 20.2785C21.0173 20.1877 20.9363 20.0555 20.9096 19.908L20.9 19.8V16.8H4.10002V19.8C4.1003 19.9499 4.04443 20.0945 3.94341 20.2053C3.8424 20.3161 3.70356 20.3851 3.55424 20.3986C3.40492 20.4122 3.25593 20.3693 3.13663 20.2785C3.01732 20.1877 2.93634 20.0555 2.90962 19.908L2.90002 19.8V12.6C2.89988 11.9084 3.13869 11.238 3.57604 10.7022C4.01339 10.1665 4.62241 9.79829 5.30002 9.65998V6.59998C5.29991 5.83831 5.5895 5.10512 6.11007 4.54912C6.63064 3.99312 7.3432 3.65594 8.10322 3.60598L8.30002 3.59998H16.7ZM19.1 10.8H5.90002C5.45275 10.8 5.0215 10.9665 4.69029 11.2671C4.35909 11.5677 4.15166 11.9808 4.10842 12.426L4.10002 12.6V15.6H20.9V12.6C20.9 12.1527 20.7335 11.7215 20.4329 11.3902C20.1323 11.059 19.7192 10.8516 19.274 10.8084L19.1 10.8ZM16.7 4.79998H8.30002C7.85257 4.8 7.42116 4.96668 7.08992 5.26752C6.75869 5.56836 6.55138 5.98178 6.50842 6.42718L6.50002 6.59998V9.59998H7.70002V8.99998C7.70002 8.84085 7.76324 8.68823 7.87576 8.57571C7.98828 8.46319 8.14089 8.39998 8.30002 8.39998H11.3C11.4592 8.39998 11.6118 8.46319 11.7243 8.57571C11.8368 8.68823 11.9 8.84085 11.9 8.99998V9.59998H13.1V8.99998C13.1 8.84085 13.1632 8.68823 13.2758 8.57571C13.3883 8.46319 13.5409 8.39998 13.7 8.39998H16.7C16.8592 8.39998 17.0118 8.46319 17.1243 8.57571C17.2368 8.68823 17.3 8.84085 17.3 8.99998V9.59998H18.5V6.59998C18.5 6.1527 18.3335 5.72145 18.0329 5.39025C17.7323 5.05904 17.3192 4.85161 16.874 4.80838L16.7 4.79998Z" fill="#FFFBFB" fill-opacity="0.65"/>
</svg>
