<svg width="24" height="24" viewBox="0 0 24 24" fill="none" xmlns="http://www.w3.org/2000/svg">
<path d="M20.2754 9.86913L16.8334 4.95413L18.4724 3.80713L21.9134 8.72213L20.2754 9.86913ZM18.3914 12.4091L16.6714 9.95013L8.47939 15.6861L10.1994 18.1431L8.56139 19.2911L3.97339 12.7371L5.61139 11.5901L7.33139 14.0481L15.5234 8.31213L13.8034 5.85413L15.4414 4.70713L20.0294 11.2601L18.3914 12.4081V12.4091ZM20.7664 7.08313L22.4044 5.93613L21.2574 4.29813L19.6194 5.44513L20.7664 7.08313ZM7.16939 19.0461L3.72739 14.1311L2.08939 15.2781L5.53039 20.1931L7.16939 19.0461ZM4.38339 18.5551L2.74539 19.7021L1.59839 18.0641L3.23639 16.9171L4.38339 18.5551Z" fill="#1B1B1B" fill-opacity="0.55"/>
</svg>
