<svg width="43" height="57" viewBox="0 0 43 57" fill="none" xmlns="http://www.w3.org/2000/svg">
<g filter="url(#filter0_d_389_347)">
<path d="M18.8554 0.8139L18.8543 0.814098C15.1753 1.45375 12.2624 2.98224 9.69637 5.60172L9.69584 5.60226C6.71368 8.63743 5.104 12.3984 4.8708 16.8759L4.87077 16.8764C4.69335 20.2179 5.75614 24.184 8.26031 29.25C10.4046 33.5813 13.1455 37.8736 16.8751 42.7473L16.8751 42.7473C17.8565 44.03 18.7813 45.1936 19.5095 46.0687C19.8739 46.5066 20.1864 46.869 20.4308 47.1369C20.5532 47.271 20.6555 47.3782 20.7368 47.4579C20.7774 47.4977 20.8106 47.5285 20.8367 47.5513C20.8497 47.5626 20.8599 47.5711 20.8676 47.5771C20.8755 47.5834 20.8789 47.5857 20.8785 47.5854L20.8785 47.5854L20.8847 47.5897C20.9919 47.6642 21.1923 47.7256 21.4365 47.7256C21.6807 47.7256 21.8811 47.6642 21.9883 47.5897L21.9883 47.5896L21.9937 47.5859C21.9936 47.586 22.0015 47.5805 22.0191 47.5657C22.0359 47.5515 22.0576 47.5322 22.0843 47.5069C22.1381 47.4561 22.2055 47.3881 22.2865 47.3024C22.4483 47.1311 22.6529 46.901 22.8921 46.6221C23.3699 46.0649 23.9742 45.326 24.6293 44.501C25.9395 42.8511 27.442 40.8706 28.5252 39.3356C33.4321 32.3507 36.6882 25.7885 37.634 21.0439L37.6341 21.0434C37.9685 19.3735 38.073 18.1679 38.0023 16.8772L38.0022 16.8759C37.769 12.3984 36.1593 8.63743 33.1771 5.60226L33.176 5.60111C30.5665 2.92807 27.5281 1.37165 23.7868 0.77774L23.786 0.777611C22.5528 0.5798 20.0791 0.598217 18.8554 0.8139Z" fill="#8DE3F5" stroke="white"/>
</g>
<defs>
<filter id="filter0_d_389_347" x="0.351807" y="0.140137" width="42.1714" height="56.0854" filterUnits="userSpaceOnUse" color-interpolation-filters="sRGB">
<feFlood flood-opacity="0" result="BackgroundImageFix"/>
<feColorMatrix in="SourceAlpha" type="matrix" values="0 0 0 0 0 0 0 0 0 0 0 0 0 0 0 0 0 0 127 0" result="hardAlpha"/>
<feOffset dy="4"/>
<feGaussianBlur stdDeviation="2"/>
<feComposite in2="hardAlpha" operator="out"/>
<feColorMatrix type="matrix" values="0 0 0 0 0 0 0 0 0 0 0 0 0 0 0 0 0 0 0.25 0"/>
<feBlend mode="normal" in2="BackgroundImageFix" result="effect1_dropShadow_389_347"/>
<feBlend mode="normal" in="SourceGraphic" in2="effect1_dropShadow_389_347" result="shape"/>
</filter>
</defs>
</svg>
