<svg width="54" height="55" viewBox="0 0 54 55" fill="none" xmlns="http://www.w3.org/2000/svg">
<g clip-path="url(#clip0_389_311)">
<g filter="url(#filter0_f_389_311)">
<ellipse cx="26.7109" cy="48.5" rx="13" ry="3.5" fill="black" fill-opacity="0.6"/>
</g>
<path d="M24.1878 0.988922C20.4069 1.6463 17.3986 3.22401 14.7584 5.91927C11.6858 9.04651 10.0298 12.925 9.79066 17.5173C9.60667 20.9826 10.7106 25.0396 13.2313 30.139C15.3931 34.5059 18.153 38.8258 21.8972 43.7186C23.8659 46.2917 25.6138 48.3953 26.0185 48.6677C26.4509 48.9682 27.2605 48.9682 27.6928 48.6677C28.3184 48.2451 32.173 43.3805 34.3533 40.2908C39.275 33.285 42.5776 26.6549 43.5435 21.8091C43.8839 20.1093 43.9943 18.8602 43.9207 17.5173C43.6815 12.925 42.0256 9.04651 38.953 5.91927C36.2667 3.16766 33.1297 1.56178 29.2843 0.951359C27.9964 0.744751 25.4666 0.763535 24.1878 0.988922ZM29.2015 9.85415C31.0414 10.4176 32.5226 11.4694 33.6633 13.0283C35.5952 15.6579 35.908 19.0199 34.4912 21.9875C33.6449 23.7624 32.3018 25.1429 30.5815 26.0163C29.4591 26.5891 28.53 26.8239 27.1777 26.8803C26.3037 26.9178 25.8897 26.8897 25.1998 26.7394C20.3057 25.7064 17.279 20.6258 18.6774 15.7893C19.5789 12.6809 21.9984 10.4176 25.209 9.67572C26.1749 9.45033 28.1712 9.54424 29.2015 9.85415Z" fill="#FF0000"/>
<g clip-path="url(#clip1_389_311)">
<g filter="url(#filter1_f_389_311)">
<ellipse cx="26.7109" cy="48.5" rx="13" ry="3.5" fill="black" fill-opacity="0.6"/>
</g>
</g>
</g>
<defs>
<filter id="filter0_f_389_311" x="9.71094" y="41" width="34" height="15" filterUnits="userSpaceOnUse" color-interpolation-filters="sRGB">
<feFlood flood-opacity="0" result="BackgroundImageFix"/>
<feBlend mode="normal" in="SourceGraphic" in2="BackgroundImageFix" result="shape"/>
<feGaussianBlur stdDeviation="2" result="effect1_foregroundBlur_389_311"/>
</filter>
<filter id="filter1_f_389_311" x="9.71094" y="41" width="34" height="15" filterUnits="userSpaceOnUse" color-interpolation-filters="sRGB">
<feFlood flood-opacity="0" result="BackgroundImageFix"/>
<feBlend mode="normal" in="SourceGraphic" in2="BackgroundImageFix" result="shape"/>
<feGaussianBlur stdDeviation="2" result="effect1_foregroundBlur_389_311"/>
</filter>
<clipPath id="clip0_389_311">
<rect width="53.7109" height="54.8299" fill="white"/>
</clipPath>
<clipPath id="clip1_389_311">
<rect width="53.7109" height="54.8299" fill="white"/>
</clipPath>
</defs>
</svg>
