<svg width="54" height="55" viewBox="0 0 54 55" fill="none" xmlns="http://www.w3.org/2000/svg">
<g clip-path="url(#clip0_88_1328)">
<g filter="url(#filter0_f_88_1328)">
<ellipse cx="27" cy="48.5" rx="13" ry="3.5" fill="black" fill-opacity="0.6"/>
</g>
<path d="M24.4768 0.988922C20.6958 1.6463 17.6876 3.22401 15.0473 5.91927C11.9747 9.04651 10.3188 12.925 10.0796 17.5173C9.89561 20.9826 10.9996 25.0396 13.5202 30.139C15.6821 34.5059 18.4419 38.8258 22.1861 43.7186C24.1548 46.2917 25.9027 48.3953 26.3075 48.6677C26.7398 48.9682 27.5494 48.9682 27.9818 48.6677C28.6073 48.2451 32.4619 43.3805 34.6422 40.2908C39.5639 33.285 42.8665 26.6549 43.8325 21.8091C44.1728 20.1093 44.2832 18.8602 44.2096 17.5173C43.9705 12.925 42.3145 9.04651 39.2419 5.91927C36.5557 3.16766 33.4187 1.56178 29.5733 0.951359C28.2854 0.744751 25.7555 0.763535 24.4768 0.988922ZM29.4905 9.85415C31.3304 10.4176 32.8115 11.4694 33.9522 13.0283C35.8841 15.6579 36.1969 19.0199 34.7802 21.9875C33.9338 23.7624 32.5907 25.1429 30.8704 26.0163C29.7481 26.5891 28.8189 26.8239 27.4666 26.8803C26.5927 26.9178 26.1787 26.8897 25.4887 26.7394C20.5946 25.7064 17.568 20.6258 18.9663 15.7893C19.8678 12.6809 22.2873 10.4176 25.4979 9.67572C26.4639 9.45033 28.4601 9.54424 29.4905 9.85415Z" fill="#FF0000"/>
</g>
<defs>
<filter id="filter0_f_88_1328" x="10" y="41" width="34" height="15" filterUnits="userSpaceOnUse" color-interpolation-filters="sRGB">
<feFlood flood-opacity="0" result="BackgroundImageFix"/>
<feBlend mode="normal" in="SourceGraphic" in2="BackgroundImageFix" result="shape"/>
<feGaussianBlur stdDeviation="2" result="effect1_foregroundBlur_88_1328"/>
</filter>
<clipPath id="clip0_88_1328">
<rect width="53.7109" height="54.8299" fill="white" transform="translate(0.289062)"/>
</clipPath>
</defs>
</svg>
