<svg width="24" height="24" viewBox="0 0 24 24" fill="none" xmlns="http://www.w3.org/2000/svg">
<path d="M9.20146 15.6L12.0015 13.5L14.7515 15.6L13.7015 12.2L16.5015 10H13.1015L12.0015 6.6L10.9015 10H7.50146L10.2515 12.2L9.20146 15.6ZM12.0015 22C9.6848 21.4167 7.77246 20.0873 6.26446 18.012C4.7558 15.9373 4.00146 13.6333 4.00146 11.1V5L12.0015 2L20.0015 5V11.1C20.0015 13.6333 19.2475 15.9373 17.7395 18.012C16.2308 20.0873 14.3181 21.4167 12.0015 22ZM12.0015 19.9C13.7348 19.35 15.1681 18.25 16.3015 16.6C17.4348 14.95 18.0015 13.1167 18.0015 11.1V6.375L12.0015 4.125L6.00146 6.375V11.1C6.00146 13.1167 6.56813 14.95 7.70146 16.6C8.8348 18.25 10.2681 19.35 12.0015 19.9Z" fill="#1B1B1B" fill-opacity="0.55"/>
</svg>
