<svg width="24" height="24" viewBox="0 0 24 24" fill="none" xmlns="http://www.w3.org/2000/svg">
<path d="M9.00146 5.00001C8.73625 5.00001 8.48189 5.10537 8.29436 5.2929C8.10682 5.48044 8.00146 5.73479 8.00146 6.00001C8.00146 6.26523 8.10682 6.51958 8.29436 6.70712C8.48189 6.89465 8.73625 7.00001 9.00146 7.00001C9.26668 7.00001 9.52104 6.89465 9.70857 6.70712C9.89611 6.51958 10.0015 6.26523 10.0015 6.00001C10.0015 5.73479 9.89611 5.48044 9.70857 5.2929C9.52104 5.10537 9.26668 5.00001 9.00146 5.00001ZM6.17146 5.00001C6.37807 4.41448 6.7612 3.90744 7.26806 3.5488C7.77492 3.19015 8.38055 2.99756 9.00146 2.99756C9.62238 2.99756 10.228 3.19015 10.7349 3.5488C11.2417 3.90744 11.6249 4.41448 11.8315 5.00001H19.0015C19.2667 5.00001 19.521 5.10537 19.7086 5.2929C19.8961 5.48044 20.0015 5.73479 20.0015 6.00001C20.0015 6.26523 19.8961 6.51958 19.7086 6.70712C19.521 6.89465 19.2667 7.00001 19.0015 7.00001H11.8315C11.6249 7.58554 11.2417 8.09258 10.7349 8.45122C10.228 8.80986 9.62238 9.00246 9.00146 9.00246C8.38055 9.00246 7.77492 8.80986 7.26806 8.45122C6.7612 8.09258 6.37807 7.58554 6.17146 7.00001H5.00146C4.73625 7.00001 4.48189 6.89465 4.29436 6.70712C4.10682 6.51958 4.00146 6.26523 4.00146 6.00001C4.00146 5.73479 4.10682 5.48044 4.29436 5.2929C4.48189 5.10537 4.73625 5.00001 5.00146 5.00001H6.17146ZM15.0015 11C14.7362 11 14.4819 11.1054 14.2944 11.2929C14.1068 11.4804 14.0015 11.7348 14.0015 12C14.0015 12.2652 14.1068 12.5196 14.2944 12.7071C14.4819 12.8947 14.7362 13 15.0015 13C15.2667 13 15.521 12.8947 15.7086 12.7071C15.8961 12.5196 16.0015 12.2652 16.0015 12C16.0015 11.7348 15.8961 11.4804 15.7086 11.2929C15.521 11.1054 15.2667 11 15.0015 11ZM12.1715 11C12.3781 10.4145 12.7612 9.90744 13.2681 9.5488C13.7749 9.19015 14.3806 8.99756 15.0015 8.99756C15.6224 8.99756 16.228 9.19015 16.7349 9.5488C17.2417 9.90744 17.6249 10.4145 17.8315 11H19.0015C19.2667 11 19.521 11.1054 19.7086 11.2929C19.8961 11.4804 20.0015 11.7348 20.0015 12C20.0015 12.2652 19.8961 12.5196 19.7086 12.7071C19.521 12.8947 19.2667 13 19.0015 13H17.8315C17.6249 13.5855 17.2417 14.0926 16.7349 14.4512C16.228 14.8099 15.6224 15.0025 15.0015 15.0025C14.3806 15.0025 13.7749 14.8099 13.2681 14.4512C12.7612 14.0926 12.3781 13.5855 12.1715 13H5.00146C4.73625 13 4.48189 12.8947 4.29436 12.7071C4.10682 12.5196 4.00146 12.2652 4.00146 12C4.00146 11.7348 4.10682 11.4804 4.29436 11.2929C4.48189 11.1054 4.73625 11 5.00146 11H12.1715ZM9.00146 17C8.73625 17 8.48189 17.1054 8.29436 17.2929C8.10682 17.4804 8.00146 17.7348 8.00146 18C8.00146 18.2652 8.10682 18.5196 8.29436 18.7071C8.48189 18.8947 8.73625 19 9.00146 19C9.26668 19 9.52104 18.8947 9.70857 18.7071C9.89611 18.5196 10.0015 18.2652 10.0015 18C10.0015 17.7348 9.89611 17.4804 9.70857 17.2929C9.52104 17.1054 9.26668 17 9.00146 17ZM6.17146 17C6.37807 16.4145 6.7612 15.9074 7.26806 15.5488C7.77492 15.1902 8.38055 14.9976 9.00146 14.9976C9.62238 14.9976 10.228 15.1902 10.7349 15.5488C11.2417 15.9074 11.6249 16.4145 11.8315 17H19.0015C19.2667 17 19.521 17.1054 19.7086 17.2929C19.8961 17.4804 20.0015 17.7348 20.0015 18C20.0015 18.2652 19.8961 18.5196 19.7086 18.7071C19.521 18.8947 19.2667 19 19.0015 19H11.8315C11.6249 19.5855 11.2417 20.0926 10.7349 20.4512C10.228 20.8099 9.62238 21.0025 9.00146 21.0025C8.38055 21.0025 7.77492 20.8099 7.26806 20.4512C6.7612 20.0926 6.37807 19.5855 6.17146 19H5.00146C4.73625 19 4.48189 18.8947 4.29436 18.7071C4.10682 18.5196 4.00146 18.2652 4.00146 18C4.00146 17.7348 4.10682 17.4804 4.29436 17.2929C4.48189 17.1054 4.73625 17 5.00146 17H6.17146Z" fill="#1B1B1B"/>
</svg>
