<svg width="16" height="16" viewBox="0 0 16 16" fill="none" xmlns="http://www.w3.org/2000/svg">
<g clip-path="url(#clip0_389_511)">
<path d="M10.6952 2.47943C11.5215 2.47943 12.2674 2.81749 12.7929 3.36024C13.4467 3.23374 14.0629 3.00324 14.6167 2.68399C14.4025 3.33451 13.9467 3.88024 13.354 4.22549C13.934 4.15724 14.4892 4.00824 15.0045 3.78549C14.6182 4.34399 14.132 4.83574 13.5705 5.22874C13.5757 5.34799 13.5787 5.46849 13.5787 5.58848C13.5787 9.27173 10.688 13.52 5.40198 13.52C3.77948 13.52 2.26823 13.057 0.997247 12.2665C1.22462 12.2929 1.45334 12.3061 1.68225 12.306C3.0285 12.306 4.26823 11.8607 5.25198 11.1122C3.99373 11.0907 2.93173 10.284 2.56748 9.17721C2.74588 9.21063 2.92698 9.22745 3.10848 9.22746C3.36973 9.22746 3.62423 9.19371 3.86473 9.12971C2.55023 8.87446 1.55948 7.74771 1.55948 6.39643V6.36069C1.94723 6.56969 2.38998 6.69519 2.86173 6.70969C2.09023 6.20918 1.58298 5.3572 1.58298 4.38993C1.58298 3.87868 1.725 3.39968 1.97225 2.98943C3.38925 4.67493 5.50675 5.78493 7.8955 5.90168C7.84623 5.69816 7.82075 5.48318 7.82075 5.26693C7.82075 3.72718 9.10748 2.47943 10.6952 2.47943ZM15.0044 3.78601H15.0069H15.0044ZM10.6952 1.47949C8.73168 1.47949 7.10498 2.91401 6.85447 4.76751C5.24797 4.44476 3.78697 3.59426 2.73722 2.34651C2.64337 2.23488 2.52625 2.14512 2.39405 2.08354C2.26185 2.02196 2.11779 1.99004 1.97195 1.99002C1.94576 1.99003 1.91958 1.99103 1.89347 1.99302C1.73496 2.00572 1.58175 2.05596 1.44651 2.1396C1.31126 2.22324 1.19788 2.33788 1.11572 2.47402C0.767084 3.05249 0.582882 3.71512 0.582951 4.39052C0.582951 4.84127 0.663935 5.28027 0.817451 5.69077C0.653951 5.87252 0.559701 6.11027 0.559701 6.36127V6.39702C0.559701 7.37654 0.946951 8.28552 1.58995 8.96677C1.55295 9.13827 1.5612 9.31777 1.6177 9.48977C1.83947 10.1645 2.24322 10.746 2.76672 11.189C2.4152 11.2673 2.05247 11.3068 1.6822 11.3068C1.48645 11.3068 1.29595 11.296 1.1157 11.274C1.0757 11.269 1.0362 11.2672 0.996451 11.2672C0.576451 11.2672 0.195201 11.532 0.0537006 11.9357C-0.101549 12.3782 0.0707163 12.8687 0.468701 13.1165C1.94572 14.0355 3.6517 14.5207 5.4017 14.5207C11.0897 14.5207 14.5112 10.068 14.5777 5.71849C15.0445 5.33234 15.4568 4.88477 15.8035 4.38799C15.9351 4.21513 16.0063 4.00378 16.006 3.78649C16.006 3.44624 15.8357 3.14549 15.5765 2.96473C15.6887 2.57998 15.5607 2.16348 15.2482 1.90898C15.0657 1.76048 14.842 1.68498 14.617 1.68498C14.4416 1.68481 14.2693 1.73095 14.1175 1.81873C13.787 2.00924 13.4335 2.15999 13.0612 2.26851C12.3877 1.76176 11.5527 1.47951 10.6952 1.47949Z" fill="#FFFBFB" fill-opacity="0.65"/>
</g>
<defs>
<clipPath id="clip0_389_511">
<rect width="16" height="16" fill="white" transform="translate(0.00146484)"/>
</clipPath>
</defs>
</svg>
