<svg width="35" height="49" viewBox="0 0 35 49" fill="none" xmlns="http://www.w3.org/2000/svg">
<path d="M14.4168 0.181793C10.6359 0.839172 7.62763 2.41688 4.98738 5.11214C1.91476 8.23938 0.258853 12.1179 0.0196665 16.7102C-0.164323 20.1755 0.939614 24.2325 3.46027 29.3319C5.62214 33.6987 8.38199 38.0186 12.1262 42.9114C14.0949 45.4846 15.8428 47.5882 16.2475 47.8606C16.6799 48.1611 17.4895 48.1611 17.9218 47.8606C18.5474 47.4379 22.402 42.5733 24.5823 39.4837C29.504 32.4779 32.8066 25.8477 33.7725 21.0019C34.1129 19.3021 34.2233 18.0531 34.1497 16.7102C33.9105 12.1179 32.2546 8.23938 29.182 5.11214C26.4957 2.36053 23.3587 0.75465 19.5133 0.14423C18.2254 -0.0623779 15.6956 -0.0435944 14.4168 0.181793ZM19.4305 9.04702C21.2704 9.61049 22.7516 10.6623 23.8923 12.2212C25.8242 14.8507 26.137 18.2128 24.7202 21.1804C23.8739 22.9553 22.5308 24.3358 20.8105 25.2092C19.6881 25.782 18.759 26.0168 17.4067 26.0731C16.5327 26.1107 16.1187 26.0825 15.4288 25.9323C10.5347 24.8992 7.50804 19.8186 8.90636 14.9822C9.8079 11.8737 12.2274 9.61049 15.438 8.86859C16.4039 8.6432 18.4002 8.73711 19.4305 9.04702Z" fill="#FF0000"/>
</svg>
