<svg width="35" height="49" viewBox="0 0 35 49" fill="none" xmlns="http://www.w3.org/2000/svg">
<path d="M14.4168 0.181305C10.6359 0.838684 7.62763 2.41639 4.98738 5.11165C1.91476 8.23889 0.258853 12.1174 0.0196665 16.7097C-0.164323 20.175 0.939614 24.232 3.46027 29.3314C5.62214 33.6982 8.38199 38.0182 12.1262 42.9109C14.0949 45.4841 15.8428 47.5877 16.2475 47.8601C16.6799 48.1606 17.4895 48.1606 17.9218 47.8601C18.5474 47.4375 22.402 42.5729 24.5823 39.4832C29.504 32.4774 32.8066 25.8473 33.7725 21.0014C34.1129 19.3016 34.2233 18.0526 34.1497 16.7097C33.9105 12.1174 32.2546 8.23889 29.182 5.11165C26.4957 2.36005 23.3587 0.754162 19.5133 0.143742C18.2254 -0.0628662 15.6956 -0.0440826 14.4168 0.181305ZM19.4305 9.04653C21.2704 9.61 22.7516 10.6618 23.8923 12.2207C25.8242 14.8502 26.137 18.2123 24.7202 21.1799C23.8739 22.9548 22.5308 24.3353 20.8105 25.2087C19.6881 25.7815 18.759 26.0163 17.4067 26.0726C16.5327 26.1102 16.1187 26.082 15.4288 25.9318C10.5347 24.8988 7.50804 19.8182 8.90636 14.9817C9.8079 11.8733 12.2274 9.61 15.438 8.8681C16.4039 8.64271 18.4002 8.73662 19.4305 9.04653Z" fill="#FF0000"/>
</svg>
